<?xml version="1.0" encoding="UTF-8"?> <svg xmlns="http://www.w3.org/2000/svg" width="707" height="195" viewBox="0 0 707 195" fill="none"> <path d="M390.086 114.339C402.22 111.397 413.432 100.865 413.432 77.3245C413.432 47.1242 393.773 42.3231 379.335 42.1683H328.036V154.916H345.391V115.114H370.58L399.302 154.916H417.733V152.283L390.086 114.339ZM345.391 56.7263H377.646C386.707 56.7263 395.923 61.2177 395.923 78.5635C396.076 99.6262 378.26 100.401 378.26 100.401H345.545V56.7263H345.391Z" fill="white"></path> <path d="M649.654 42.0134L616.324 126.11L582.995 42.0134H559.649V154.916H577.005V74.227L609.106 154.916H623.39L655.644 74.227V154.916H673V42.0134H649.654Z" fill="white"></path> <path d="M485.773 125.025C471.028 125.025 459.202 112.945 459.202 98.2322C459.202 83.3643 471.182 71.4391 485.773 71.4391C500.518 71.4391 512.344 83.5192 512.344 98.2322C512.344 112.945 500.364 125.025 485.773 125.025ZM485.773 82.8997C477.479 82.8997 470.721 89.7141 470.721 98.0773C470.721 106.44 477.479 113.255 485.773 113.255C494.067 113.255 500.825 106.44 500.825 98.0773C500.825 89.7141 494.067 82.8997 485.773 82.8997Z" fill="#FAAA00"></path> <path d="M539.376 77.3244L524.171 86.1522C525.246 89.8692 526.014 93.8959 526.014 98.0774C526.014 120.379 508.044 138.499 485.927 138.499C463.81 138.499 445.839 120.379 445.839 98.0774C445.839 75.7757 463.81 57.6555 485.927 57.6555C497.139 57.6555 507.276 62.3017 514.495 69.7356L529.854 60.753C519.102 48.2083 503.282 40.1549 485.773 40.1549C454.133 40.1549 428.33 66.1736 428.33 98.0774C428.33 129.981 454.133 156 485.773 156C517.413 156 543.216 129.981 543.216 98.0774C543.216 90.7984 541.834 83.8291 539.376 77.3244Z" fill="white"></path> <path d="M262.759 100.401V114.959H291.481C284.876 134.008 269.517 138.654 257.384 138.654C244.789 138.654 219.293 131.995 219.293 97.7677C219.293 72.988 236.802 57.036 257.691 57.036C269.671 57.036 280.883 64.0053 287.027 72.6782L302.232 63.3859C292.556 48.9826 276.583 40 257.384 40C225.744 40 202.859 64.3151 202.859 97.9226C202.859 133.079 224.208 155.845 257.384 155.845C289.791 155.845 309.758 134.318 310.68 100.401H262.759Z" fill="white"></path> <path d="M192.875 56.7263V42.1683H141.576V56.7263H158.317V140.203H141.576V154.916H192.875V140.203H175.673V56.7263H192.875Z" fill="white"></path> <path d="M109.014 42.1683L76.6065 120.069L44.1989 42.1683H25V44.1816L72.4596 154.916H80.7535L128.213 44.1816V42.1683H109.014Z" fill="white"></path> </svg> 